<svg width="36" height="36" viewBox="0 0 36 36" fill="none" xmlns="http://www.w3.org/2000/svg">
<path d="M3.49842 12.282C6.11442 13.854 12.5764 16.044 12.5764 16.044C12.5764 16.044 16.9924 17.748 20.8144 18.54C24.6304 19.332 25.4764 16.65 25.4764 16.65C25.4764 16.65 27.0484 17.694 29.5744 17.676C32.1004 17.652 33.0844 17.586 33.6784 18.198C34.2724 18.81 34.6264 19.68 34.1464 20.7C33.6664 21.72 28.3684 23.934 23.6584 23.706C18.9484 23.478 16.1044 22.092 10.7344 21.636C5.67042 21.204 2.83842 20.976 2.65842 20.724C2.47842 20.472 2.02242 19.044 2.20242 16.218C2.38242 13.392 3.31842 11.988 3.49842 12.282Z" stroke="#292929" stroke-width="0.8" stroke-miterlimit="10" stroke-linecap="round" stroke-linejoin="round"/>
<path d="M2.6582 20.724V22.998H11.4662L11.4422 21.81" stroke="#292929" stroke-width="0.5" stroke-miterlimit="10" stroke-linecap="round" stroke-linejoin="round"/>
<path d="M2.73047 13.4041C2.80247 13.4401 2.88047 13.4761 2.97047 13.5181" stroke="#292929" stroke-width="0.4" stroke-miterlimit="10" stroke-linecap="round"/>
<path d="M4.07422 14.004C7.09222 15.288 12.8522 17.514 14.6162 18.03C17.8982 18.996 21.2282 20.13 22.9082 19.902C24.2942 19.716 25.3442 19.02 26.0762 17.904" stroke="#292929" stroke-width="0.4" stroke-miterlimit="10" stroke-linecap="round" stroke-dasharray="0.87 0.87"/>
<path d="M26.3887 17.3821C26.4307 17.3041 26.4667 17.2261 26.5027 17.1421" stroke="#292929" stroke-width="0.4" stroke-miterlimit="10" stroke-linecap="round"/>
</svg>
