<svg width="36" height="36" viewBox="0 0 36 36" fill="none" xmlns="http://www.w3.org/2000/svg">
<path d="M4.46993 6.54602C4.46993 6.54602 8.90393 7.87202 11.4959 7.54802C14.0879 7.23002 16.3799 6.88802 16.3799 6.88802C16.3799 6.88802 18.7739 13.962 20.1419 16.374C21.5099 18.786 24.1439 20.946 25.3079 21.48C26.7899 22.158 28.6559 22.29 31.2479 22.614C33.8399 22.938 34.1159 24.912 34.1159 25.776C34.1159 26.64 29.6759 27.588 25.6859 27.96C21.8639 28.32 20.5619 27.954 18.0479 26.76C15.3419 25.47 14.0579 23.856 11.5559 22.536C9.05393 21.216 2.24993 19.866 2.24993 19.866C2.24993 19.866 1.81793 18.24 2.04593 16.056C2.17793 14.79 3.62393 11.634 3.94193 10.512C4.25993 9.39002 4.46993 6.54602 4.46993 6.54602Z" stroke="#292929" stroke-width="0.8" stroke-miterlimit="10" stroke-linejoin="round"/>
<path d="M8.766 21.342V28.956H3.834L2.25 19.86" stroke="#292929" stroke-width="0.8" stroke-miterlimit="10" stroke-linejoin="round"/>
<path d="M8.76562 22.9561C9.60563 23.0641 10.7516 23.4301 13.3076 25.3441C15.8636 27.2581 16.9256 27.9601 19.3016 28.7821C22.0316 29.7301 24.8096 29.4001 27.4496 29.0461C31.0676 28.5661 32.9156 27.9181 34.5476 27.2041C34.5476 26.3821 34.5476 25.5661 34.5476 25.5661" stroke="#292929" stroke-width="0.8" stroke-miterlimit="10" stroke-linecap="round" stroke-linejoin="round"/>
<path d="M7.34375 7.17603C7.34375 7.17603 7.75175 14.376 8.89175 16.218C9.61175 17.388 12.9958 18.618 15.0178 18.204C16.7217 17.856 15.7497 16.218 14.2797 11.508C13.4757 8.92803 13.0857 7.30203 13.0857 7.30203" stroke="#292929" stroke-width="0.4" stroke-miterlimit="10" stroke-linejoin="round"/>
</svg>
