<svg width="36" height="36" viewBox="0 0 36 36" fill="none" xmlns="http://www.w3.org/2000/svg">
<path d="M3.15568 12.6899C3.65968 12.1499 6.64168 15.3959 9.89368 15.1619C13.1457 14.9279 15.2397 10.9499 16.5237 11.0579C18.1797 11.1959 22.3917 16.4459 25.9017 16.8839C29.4117 17.3219 33.7797 17.3939 34.1157 19.7039C34.2417 20.5679 26.0637 23.4119 20.5377 22.8419C15.5697 22.3319 13.8477 21.7979 10.7457 21.6779C7.64368 21.5579 3.49168 22.1819 2.87968 20.9099C2.26768 19.6379 1.94968 18.8039 2.14168 16.8899C2.33368 14.9759 2.77168 13.0619 3.15568 12.6899Z" stroke="#292929" stroke-width="0.8" stroke-miterlimit="10"/>
<path d="M2.87988 20.91L2.90988 24.228H10.9619V22.92C10.9619 22.92 12.4439 22.956 18.1079 23.79C27.7799 25.212 34.4459 21.072 34.4459 21.072V19.662L33.3479 20.388" stroke="#292929" stroke-width="0.8" stroke-miterlimit="10" stroke-linecap="round" stroke-linejoin="round"/>
<path d="M12.2998 21.786C12.2998 21.786 14.9878 17.478 21.7738 18.204C22.0498 15.792 22.0618 15.054 22.0618 15.054" stroke="#292929" stroke-width="0.4" stroke-miterlimit="10" stroke-linecap="round"/>
<path d="M16.6553 13.296L17.6993 11.802" stroke="#292929" stroke-width="0.8" stroke-miterlimit="10" stroke-linecap="round"/>
<path d="M18.4072 14.6699L19.4512 13.1759" stroke="#292929" stroke-width="0.8" stroke-miterlimit="10" stroke-linecap="round"/>
<path d="M20.0693 15.99L21.1133 14.502" stroke="#292929" stroke-width="0.8" stroke-miterlimit="10" stroke-linecap="round"/>
<path d="M28.5713 17.2079C25.7393 19.6619 25.8413 22.5299 25.8413 22.5299" stroke="#292929" stroke-width="0.4" stroke-miterlimit="10"/>
<path d="M10.752 21.3299C10.752 21.3299 13.098 18.0839 15.882 17.3519C18.666 16.6199 21.744 16.6139 21.744 16.6139" stroke="#292929" stroke-width="0.4" stroke-miterlimit="10" stroke-linecap="round" stroke-dasharray="0.88 0.88"/>
</svg>
