<svg width="36" height="36" viewBox="0 0 36 36" fill="none" xmlns="http://www.w3.org/2000/svg">
<path d="M34.4644 19.092C32.6464 19.416 31.0924 19.578 29.3464 19.74C28.3864 19.83 28.0684 19.74 28.0684 19.74" stroke="#292929" stroke-width="0.8" stroke-miterlimit="10" stroke-linecap="round" stroke-linejoin="round"/>
<path d="M34.4641 19.092C34.4641 19.092 34.9201 20.13 34.2361 20.73C30.1021 24.222 22.4161 22.362 20.8621 22.158C19.3081 21.954 17.5441 21.996 16.8541 22.092C16.1641 22.188 10.4581 22.92 6.38411 22.536C4.96811 22.41 4.13411 22.476 2.54411 22.092C1.99211 21.96 1.82411 20.598 1.97411 19.512C2.58611 19.452 4.75211 19.662 6.46211 19.62C8.17211 19.578 13.6501 19.098 14.5321 19.098C15.4141 19.098 17.3881 19.224 17.3881 19.224" stroke="#292929" stroke-width="0.8" stroke-miterlimit="10" stroke-linecap="round" stroke-linejoin="round"/>
<path d="M15.0059 22.1041C15.0059 22.1041 20.2619 15.8761 22.5539 12.0601C22.5539 12.0601 27.7739 15.2701 28.2359 15.8821C28.6739 18.5701 27.3599 22.7401 27.3599 22.7401" stroke="#292929" stroke-width="0.8" stroke-miterlimit="10" stroke-linecap="round" stroke-linejoin="round"/>
<path d="M16.8545 22.0921C16.8545 22.0921 19.4945 18.9301 20.5805 17.3941C21.6605 15.8581 23.8025 12.8341 23.8025 12.8341" stroke="#292929" stroke-width="0.4" stroke-miterlimit="10" stroke-linecap="round" stroke-dasharray="0.88 0.88"/>
<path d="M26.9817 15.228C26.9817 15.228 27.1617 16.524 26.8377 19.092C26.5077 21.66 25.7637 22.734 25.7637 22.734" stroke="#292929" stroke-width="0.4" stroke-miterlimit="10" stroke-linecap="round" stroke-dasharray="0.88 0.88"/>
</svg>
