<svg width="36" height="36" viewBox="0 0 36 36" fill="none" xmlns="http://www.w3.org/2000/svg">
<path d="M5.84958 17.67C5.31558 19.05 4.50558 20.658 3.94158 23.172C3.38358 25.692 3.90558 26.208 4.30758 26.658C5.15958 27.612 10.4876 27.78 12.5816 28.992C15.3776 30.612 17.1236 32.928 20.2076 33.576C23.2916 34.224 27.1376 33.03 28.9076 32.274C30.7916 31.464 32.2556 30.918 32.4536 29.862C32.6576 28.806 31.6856 27.834 29.6156 27.594C27.5456 27.348 25.6016 27.876 24.7496 27.51C23.8976 27.144 21.3836 25.278 20.1656 23.088C18.9476 20.898 18.8396 17.616 18.9476 13.722C19.0556 9.82803 19.4756 2.04603 19.4756 2.04603C19.4756 2.04603 16.7336 0.504025 13.9196 0.870025C10.1876 1.35603 7.39158 1.80003 5.03958 2.13003C4.67358 4.96803 5.48358 6.51003 5.96958 9.18603C6.45558 11.862 6.38358 16.296 5.84958 17.67Z" stroke="#292929" stroke-width="0.8" stroke-miterlimit="10"/>
<path d="M10.0314 28.068L9.61745 34.524C9.61745 34.524 5.00345 35.016 4.49345 34.326C3.98345 33.636 3.73145 25.536 3.73145 25.536" stroke="#292929" stroke-width="0.8" stroke-miterlimit="10"/>
<path d="M9.93555 29.6221C9.93555 29.6221 11.3935 29.7961 12.3355 30.4561C13.2775 31.1101 17.3815 34.1701 19.0075 34.6981C20.6335 35.2261 23.3095 35.3161 25.2115 34.8961C28.8175 34.1041 32.0995 32.2141 32.4775 31.6321C33.1615 30.5761 32.4535 29.8681 32.4535 29.8681" stroke="#292929" stroke-width="0.8" stroke-miterlimit="10"/>
<path d="M12.4561 1.06799C12.4561 1.06799 13.6141 21.534 14.2201 24.696C14.8261 27.858 16.3261 31.686 16.3261 31.686" stroke="#292929" stroke-width="0.4" stroke-miterlimit="10" stroke-linejoin="round"/>
<path d="M11.6035 1.06799C11.6035 1.06799 12.7615 21.534 13.3675 24.696C13.9735 27.858 15.2035 30.96 15.2035 30.96" stroke="#292929" stroke-width="0.4" stroke-miterlimit="10" stroke-linecap="round" stroke-linejoin="round" stroke-dasharray="0.79 0.79"/>
<path d="M5.96387 17.292C8.26187 18.066 12.4079 23.55 13.7939 24.348C16.4099 25.854 18.0539 25.914 19.0259 25.242C19.9979 24.57 19.6439 21.912 19.6439 21.912" stroke="#292929" stroke-width="0.4" stroke-miterlimit="10" stroke-linejoin="round"/>
<path d="M5.37598 6.57005C7.52998 6.57005 10.752 5.70605 13.542 5.70605C16.332 5.70605 19.248 6.57005 19.248 6.57005" stroke="#292929" stroke-width="0.4" stroke-miterlimit="10" stroke-linejoin="round"/>
</svg>
