<svg width="36" height="36" viewBox="0 0 36 36" fill="none" xmlns="http://www.w3.org/2000/svg">
<path d="M22.8716 19.518C27.0038 19.518 30.3536 16.1681 30.3536 12.036C30.3536 7.90376 27.0038 4.55396 22.8716 4.55396C18.7395 4.55396 15.3896 7.90376 15.3896 12.036C15.3896 16.1681 18.7395 19.518 22.8716 19.518Z" stroke="#292929" stroke-width="0.8" stroke-miterlimit="10" stroke-linecap="round"/>
<path d="M18.7256 10.0679C18.7256 8.80193 19.4396 7.95593 20.4836 7.95593C21.5216 7.95593 22.2416 8.78993 22.2416 10.0679C22.2416 11.3459 21.5156 12.1799 20.4836 12.1799C19.4396 12.1859 18.7256 11.3399 18.7256 10.0679ZM21.6836 10.0679C21.6836 9.05393 21.2036 8.45393 20.4836 8.45393C19.7516 8.45393 19.2836 9.06593 19.2836 10.0679C19.2836 11.0699 19.7516 11.6819 20.4836 11.6819C21.2096 11.6819 21.6836 11.0819 21.6836 10.0679ZM25.1996 8.00993H25.8536L20.5316 15.7979H19.8776L25.1996 8.00993ZM23.5016 13.7399C23.5016 12.4739 24.2276 11.6279 25.2596 11.6279C26.3036 11.6279 27.0176 12.4739 27.0176 13.7399C27.0176 15.0059 26.3036 15.8519 25.2596 15.8519C24.2216 15.8579 23.5016 15.0119 23.5016 13.7399ZM26.4596 13.7399C26.4596 12.7379 25.9916 12.1259 25.2596 12.1259C24.5336 12.1259 24.0596 12.7259 24.0596 13.7399C24.0596 14.7539 24.5396 15.3539 25.2596 15.3539C25.9916 15.3539 26.4596 14.7419 26.4596 13.7399Z" fill="#292929"/>
<path d="M5.67594 12.672C4.99194 12.948 2.20794 16.86 3.47994 20.592C3.73194 22.086 10.7399 23.262 13.7759 25.998C16.8119 28.734 16.2059 28.896 18.0239 30.306C19.8419 31.716 25.0919 31.098 27.5039 30.462C29.9159 29.826 32.4119 28.92 33.3659 27.918C34.3199 26.916 33.5339 25.278 31.4159 24.456C29.2979 23.634 26.3639 22.638 26.3639 22.638C26.3639 22.638 23.7239 24.96 21.2219 24.504C18.7199 24.048 15.2579 20.55 12.1199 17.952C8.98194 15.354 6.35994 12.396 5.67594 12.672Z" stroke="#292929" stroke-width="0.8" stroke-miterlimit="10"/>
<path d="M9.9901 23.55L9.1261 30.048C9.1261 30.048 4.2721 30.558 3.7381 29.556C3.2041 28.56 3.2041 19.272 3.2041 19.272" stroke="#292929" stroke-width="0.8" stroke-miterlimit="10"/>
<path d="M3.74414 28.0139H9.39614" stroke="#292929" stroke-width="0.8" stroke-miterlimit="10"/>
</svg>
