<svg width="36" height="36" viewBox="0 0 36 36" fill="none" xmlns="http://www.w3.org/2000/svg">
<path d="M27.7323 21.978C27.7323 21.978 29.1003 21.942 30.6003 21.486C32.1003 21.024 34.8003 19.968 34.8003 19.968V21.06C34.8003 21.06 32.3763 22.632 29.8923 23.346C28.3563 23.784 26.3043 24.066 23.6043 24.066C20.9043 24.066 14.5923 23.112 12.7503 23.244C10.9083 23.376 4.59034 23.82 2.20234 22.626C1.42234 22.236 1.89634 19.386 2.06434 19.212C2.23234 19.038 4.08034 19.59 6.53434 19.452" stroke="#292929" stroke-width="0.8" stroke-miterlimit="10" stroke-linecap="round" stroke-linejoin="round"/>
<path d="M8.09408 13.968C6.94208 12.882 5.60408 12.318 4.08008 11.91C4.11608 12.516 4.15808 13.122 4.19408 13.728C4.27208 14.406 4.27208 14.934 4.27208 15.636C6.91808 17.226 7.09208 20.574 7.59608 23.436" stroke="#292929" stroke-width="0.8" stroke-miterlimit="10" stroke-linecap="round" stroke-linejoin="round"/>
<path d="M11.5923 23.316C11.1303 20.886 10.6323 18.6 9.69629 16.308" stroke="#292929" stroke-width="0.8" stroke-miterlimit="10" stroke-linecap="round" stroke-linejoin="round"/>
<path d="M27.468 23.8261C27.468 23.8261 28.242 19.7221 28.038 18.5641C26.946 17.8501 25.104 17.0941 23.262 16.3141C21.894 19.1881 18.042 23.4361 18.042 23.4361" stroke="#292929" stroke-width="0.8" stroke-miterlimit="10" stroke-linecap="round" stroke-linejoin="round"/>
<path d="M15.7622 11.91L16.5122 14.472C16.5122 14.472 10.5902 16.134 9.72024 16.314C8.59224 16.554 7.53624 16.758 7.15824 15.768C6.78024 14.778 7.92624 14.046 8.77224 13.818C9.62424 13.584 15.7622 11.91 15.7622 11.91Z" stroke="#292929" stroke-width="0.8" stroke-miterlimit="10" stroke-linecap="round" stroke-linejoin="round"/>
<path d="M10.7402 19.5901C10.7402 19.5901 13.7762 20.0821 15.7562 20.8501C17.7362 21.6181 19.2422 21.8101 19.2422 21.8101" stroke="#292929" stroke-width="0.8" stroke-miterlimit="10"/>
<path d="M4.14062 12.816C5.22063 13.092 7.47062 14.544 7.47062 14.544" stroke="#292929" stroke-width="0.4" stroke-miterlimit="10" stroke-linecap="round"/>
</svg>
