<svg width="36" height="36" viewBox="0 0 36 36" fill="none" xmlns="http://www.w3.org/2000/svg">
<path d="M5.34576 6.94202C5.63376 6.94202 6.06576 7.99202 7.64376 9.92402C9.22176 11.856 11.5918 14.784 13.2418 16.77C14.6398 18.456 16.5178 21.024 20.1598 22.548C23.7058 24.036 25.0738 21.342 25.0738 21.342C25.0738 21.342 26.5258 21.828 28.0978 22.104C29.6698 22.38 35.1118 22.818 33.4378 25.002C31.7638 27.186 23.7118 29.022 22.1038 29.022C20.5018 29.022 18.3178 28.68 17.0878 27.792C15.8578 26.904 13.7218 23.22 12.7198 22.2C11.7178 21.18 8.59176 18.306 7.66776 18.414C6.74376 18.516 6.57576 19.164 6.50976 20.46C6.44376 21.756 6.71376 28.446 6.71376 28.446H4.93776C4.93776 28.446 4.90176 25.248 4.04976 21.558C3.19776 17.868 3.12576 18.276 2.27376 15.066C1.42176 11.856 4.76976 6.94202 5.34576 6.94202Z" stroke="white" stroke-width="0.8" stroke-miterlimit="10" stroke-linejoin="round"/>
<path d="M2.3457 15.3361C4.5957 17.2141 6.7737 17.1601 9.0537 19.0441" stroke="white" stroke-width="0.8" stroke-miterlimit="10"/>
<path d="M4.89551 27.036H6.67151" stroke="white" stroke-width="0.8" stroke-miterlimit="10"/>
</svg>
