<svg width="36" height="37" viewBox="0 0 36 37" fill="none" xmlns="http://www.w3.org/2000/svg">
<path d="M5.346 7.88062C5.634 7.88062 6.066 8.93062 7.644 10.8626C9.222 12.7946 11.592 15.7226 13.242 17.7086C14.64 19.3946 16.518 21.9626 20.16 23.4866C23.706 24.9746 25.074 22.2806 25.074 22.2806C25.074 22.2806 26.526 22.7666 28.098 23.0426C29.67 23.3186 35.112 23.7566 33.438 25.9406C31.764 28.1246 23.712 29.9606 22.104 29.9606C20.502 29.9606 18.318 29.6186 17.088 28.7306C15.858 27.8426 13.722 24.1586 12.72 23.1386C11.718 22.1186 8.592 19.2446 7.668 19.3526C6.744 19.4546 6.576 20.1026 6.51 21.3986C6.444 22.6946 6.714 29.3846 6.714 29.3846H4.938C4.938 29.3846 4.902 26.1866 4.05 22.4966C3.198 18.8066 3.126 19.2146 2.274 16.0046C1.422 12.7946 4.77 7.88062 5.346 7.88062Z" stroke="#292929" stroke-width="0.8" stroke-miterlimit="10" stroke-linejoin="round"/>
<path d="M2.34595 16.2747C4.59595 18.1527 6.77395 18.0987 9.05395 19.9827" stroke="#292929" stroke-width="0.8" stroke-miterlimit="10"/>
<path d="M4.896 27.9746H6.672" stroke="#292929" stroke-width="0.8" stroke-miterlimit="10"/>
</svg>
