<svg width="36" height="37" viewBox="0 0 36 37" fill="none" xmlns="http://www.w3.org/2000/svg">
<path d="M4.47005 7.48462C4.47005 7.48462 8.90405 8.81062 11.4961 8.48662C14.0881 8.16862 16.38 7.82662 16.38 7.82662C16.38 7.82662 18.774 14.9006 20.142 17.3126C21.51 19.7246 24.1441 21.8846 25.3081 22.4186C26.7901 23.0966 28.6561 23.2286 31.2481 23.5526C33.8401 23.8766 34.1161 25.8506 34.1161 26.7146C34.1161 27.5786 29.6761 28.5266 25.6861 28.8986C21.8641 29.2586 20.562 28.8926 18.048 27.6986C15.342 26.4086 14.0581 24.7946 11.5561 23.4746C9.05405 22.1546 2.25005 20.8046 2.25005 20.8046C2.25005 20.8046 1.81805 19.1786 2.04605 16.9946C2.17805 15.7286 3.62405 12.5726 3.94205 11.4506C4.26005 10.3286 4.47005 7.48462 4.47005 7.48462Z" stroke="white" stroke-width="0.8" stroke-miterlimit="10" stroke-linejoin="round"/>
<path d="M8.766 22.2806V29.8946H3.834L2.25 20.7986" stroke="white" stroke-width="0.8" stroke-miterlimit="10" stroke-linejoin="round"/>
<path d="M8.76599 23.8946C9.60599 24.0026 10.752 24.3686 13.308 26.2826C15.864 28.1966 16.926 28.8986 19.302 29.7206C22.032 30.6686 24.81 30.3386 27.45 29.9846C31.068 29.5046 32.916 28.8566 34.548 28.1426C34.548 27.3206 34.548 26.5046 34.548 26.5046" stroke="white" stroke-width="0.8" stroke-miterlimit="10" stroke-linecap="round" stroke-linejoin="round"/>
<path d="M7.34399 8.11462C7.34399 8.11462 7.75199 15.3146 8.89199 17.1566C9.61199 18.3266 12.996 19.5566 15.018 19.1426C16.722 18.7946 15.75 17.1566 14.28 12.4466C13.476 9.86662 13.086 8.24062 13.086 8.24062" stroke="white" stroke-width="0.4" stroke-miterlimit="10" stroke-linejoin="round"/>
</svg>
