<svg width="40" height="40" viewBox="0 0 40 40" fill="none" xmlns="http://www.w3.org/2000/svg">
<rect x="0.5" y="0.5" width="39" height="39" rx="19.5" fill="white"/>
<rect x="0.5" y="0.5" width="39" height="39" rx="19.5" stroke="#E3E3E3"/>
<path d="M12.4507 21.9082L19.4033 28.4395C19.6428 28.6644 19.7625 28.7769 19.9037 28.8046C19.9673 28.8171 20.0327 28.8171 20.0963 28.8046C20.2375 28.7769 20.3572 28.6644 20.5967 28.4395L27.5493 21.9082C29.5055 20.0706 29.743 17.0466 28.0978 14.9261L27.7885 14.5273C25.8203 11.9906 21.8696 12.416 20.4867 15.3137C20.2913 15.723 19.7087 15.723 19.5133 15.3137C18.1304 12.416 14.1797 11.9906 12.2115 14.5273L11.9022 14.9261C10.2569 17.0466 10.4945 20.0706 12.4507 21.9082Z" stroke="#413F3D"/>
</svg>
