<svg width="36" height="36" viewBox="0 0 36 36" fill="none" xmlns="http://www.w3.org/2000/svg">
<path d="M22.8301 17.988C22.8301 17.988 23.9401 18.432 27.7141 18.246C31.4881 18.066 31.9861 17.34 31.9861 17.34C31.9861 17.34 33.2941 17.586 32.8681 18.636C32.5381 19.446 28.5301 21.768 25.0621 21.666C21.6001 21.564 17.3461 20.556 14.7001 20.334C12.0541 20.112 3.79806 20.034 3.16206 19.416C2.52606 18.798 2.44806 17.982 2.66406 16.428C2.88006 14.874 3.73806 13.338 3.73806 13.338C3.73806 13.338 6.76206 15.108 11.5321 16.038C16.3021 16.968 18.1561 17.28 18.1561 17.28" stroke="#292929" stroke-width="0.8" stroke-miterlimit="10" stroke-linecap="round" stroke-linejoin="round"/>
<path d="M20.2802 11.514L17.7422 18.798L22.4462 19.356C22.4462 19.356 23.1602 16.92 23.3282 15.912C23.4962 14.904 23.4662 13.992 23.4662 13.992L20.2802 11.514Z" stroke="#292929" stroke-width="0.8" stroke-miterlimit="10" stroke-linecap="round" stroke-linejoin="round"/>
<path d="M23.6162 14.592C23.6162 14.592 25.1822 15.6 26.5142 15.87C27.8462 16.14 31.0742 16.464 31.0742 16.464" stroke="#292929" stroke-width="0.8" stroke-miterlimit="10" stroke-linecap="round" stroke-linejoin="round"/>
<path d="M19.8425 11.64L18.1085 10.224C18.1085 10.224 16.1645 12.642 16.7885 13.962C17.4125 15.282 18.4385 16.158 18.4385 16.158" stroke="#292929" stroke-width="0.8" stroke-miterlimit="10" stroke-linecap="round" stroke-linejoin="round"/>
<path d="M18.4378 16.152C18.4378 16.152 12.2518 15.036 9.08977 14.01C5.92777 12.984 4.80577 12.072 4.13377 12.348C3.46177 12.624 3.73777 13.344 3.73777 13.344" stroke="#292929" stroke-width="0.8" stroke-miterlimit="10" stroke-linecap="round" stroke-linejoin="round"/>
<path d="M23.2197 16.764C23.2197 16.764 26.7897 17.22 28.5537 16.902C30.3177 16.59 31.0437 16.488 31.5597 16.356C32.0757 16.224 32.4417 16.884 32.1177 17.292" stroke="#292929" stroke-width="0.8" stroke-miterlimit="10" stroke-linecap="round" stroke-linejoin="round"/>
<path d="M2.62207 19.5059L2.82607 25.0799C2.82607 25.0799 3.91207 25.5179 7.26607 25.7159C10.6201 25.9139 12.0241 25.1999 12.0241 25.1999L11.9521 23.244C11.9521 23.244 14.0881 23.4599 15.5641 23.5919C17.0401 23.7179 18.9781 24.1259 18.9781 24.1259L19.0201 25.3559C19.0201 25.3559 22.9081 25.8959 27.2041 25.6079C31.5001 25.3139 33.9781 22.1039 33.9781 22.1039C33.9781 22.1039 33.9121 20.3519 33.7501 19.6079C33.5881 18.8639 32.8621 18.6479 32.8621 18.6479" stroke="#292929" stroke-width="0.8" stroke-miterlimit="10" stroke-linecap="round" stroke-linejoin="round"/>
<path d="M2.6582 20.508C2.6582 20.508 3.2882 21.06 7.4222 21.222C11.5562 21.384 12.8282 21.144 15.5882 21.54C18.3482 21.936 22.7882 22.872 25.8122 22.764C28.8362 22.656 30.9542 21.576 31.9682 21.096C32.9822 20.616 33.5162 19.752 33.5162 19.752" stroke="#292929" stroke-width="0.4" stroke-miterlimit="10" stroke-linecap="round" stroke-linejoin="round"/>
</svg>
